<mxfile host="app.diagrams.net" modified="2021-05-29T05:20:01.972Z" agent="5.0 (X11; Linux x86_64) AppleWebKit/537.36 (KHTML, like Gecko) Chrome/90.0.4430.212 Safari/537.36" etag="M0egjQG5bEUXeH3kM_Y4" version="14.7.2" type="github">
  <diagram id="b_W-HJS0c4aDNrqqpgx6" name="Page-1">
    <mxGraphModel dx="1421" dy="836" grid="1" gridSize="10" guides="1" tooltips="1" connect="1" arrows="1" fold="1" page="0" pageScale="1" pageWidth="827" pageHeight="1169" math="0" shadow="0">
      <root>
        <mxCell id="0" />
        <mxCell id="1" parent="0" />
        <mxCell id="ssLXStN1Yig9MykAoHH--21" style="edgeStyle=orthogonalEdgeStyle;rounded=0;orthogonalLoop=1;jettySize=auto;html=1;entryX=0.309;entryY=-0.05;entryDx=0;entryDy=0;entryPerimeter=0;" edge="1" parent="1" source="ssLXStN1Yig9MykAoHH--17" target="ssLXStN1Yig9MykAoHH--18">
          <mxGeometry relative="1" as="geometry">
            <mxPoint x="460" y="300" as="targetPoint" />
          </mxGeometry>
        </mxCell>
        <mxCell id="ssLXStN1Yig9MykAoHH--17" value="" style="rounded=1;whiteSpace=wrap;html=1;" vertex="1" parent="1">
          <mxGeometry x="260" y="140" width="120" height="60" as="geometry" />
        </mxCell>
        <mxCell id="ssLXStN1Yig9MykAoHH--18" value="Message Queue/ Message Broker" style="shape=process;whiteSpace=wrap;html=1;backgroundOutline=1;" vertex="1" parent="1">
          <mxGeometry x="290" y="340" width="550" height="60" as="geometry" />
        </mxCell>
        <mxCell id="ssLXStN1Yig9MykAoHH--22" style="edgeStyle=orthogonalEdgeStyle;rounded=0;orthogonalLoop=1;jettySize=auto;html=1;entryX=0.56;entryY=-0.017;entryDx=0;entryDy=0;entryPerimeter=0;" edge="1" parent="1" source="ssLXStN1Yig9MykAoHH--19" target="ssLXStN1Yig9MykAoHH--18">
          <mxGeometry relative="1" as="geometry">
            <Array as="points">
              <mxPoint x="580" y="339" />
            </Array>
          </mxGeometry>
        </mxCell>
        <mxCell id="ssLXStN1Yig9MykAoHH--19" value="" style="rounded=1;whiteSpace=wrap;html=1;" vertex="1" parent="1">
          <mxGeometry x="520" y="140" width="120" height="60" as="geometry" />
        </mxCell>
        <mxCell id="ssLXStN1Yig9MykAoHH--23" style="edgeStyle=orthogonalEdgeStyle;rounded=0;orthogonalLoop=1;jettySize=auto;html=1;entryX=0.66;entryY=-0.033;entryDx=0;entryDy=0;entryPerimeter=0;" edge="1" parent="1" source="ssLXStN1Yig9MykAoHH--20" target="ssLXStN1Yig9MykAoHH--18">
          <mxGeometry relative="1" as="geometry" />
        </mxCell>
        <mxCell id="ssLXStN1Yig9MykAoHH--20" value="" style="rounded=1;whiteSpace=wrap;html=1;" vertex="1" parent="1">
          <mxGeometry x="740" y="130" width="120" height="60" as="geometry" />
        </mxCell>
      </root>
    </mxGraphModel>
  </diagram>
</mxfile>
